<?xml version="1.0" encoding="utf-8"?>
<!-- Generator: Adobe Illustrator 16.0.0, SVG Export Plug-In . SVG Version: 6.00 Build 0)  -->
<!DOCTYPE svg PUBLIC "-//W3C//DTD SVG 1.1//EN" "http://www.w3.org/Graphics/SVG/1.1/DTD/svg11.dtd">
<svg version="1.1" xmlns="http://www.w3.org/2000/svg" xmlns:xlink="http://www.w3.org/1999/xlink" x="0px" y="0px" width="400px"
	 height="400px" viewBox="0 0 400 400" enable-background="new 0 0 400 400" xml:space="preserve">
<g id="Calque_1" display="none">
	<path display="inline" fill="#FFFFFF" stroke="#000000" stroke-width="2" stroke-miterlimit="10" d="M318.69,119.655
		c-12.659,0-24.594,3.07-35.132,8.477c-9.751-36.01-42.641-62.508-81.735-62.508c-41.159,0-75.447,29.366-83.088,68.286
		c-11.125-6.355-23.995-10.005-37.724-10.005c-42.08,0-76.191,34.112-76.191,76.192c0,42.079,34.112,76.192,76.191,76.192
		c12.488,0,24.263-3.024,34.665-8.35c13.891,25.239,40.732,42.347,71.577,42.347c36.819,0,67.936-24.373,78.124-57.861
		c13.849,13.268,32.622,21.435,53.314,21.435c42.583,0,77.103-34.52,77.103-77.102C395.793,154.175,361.273,119.655,318.69,119.655z
		"/>
</g>
<g id="Calque_2">
	<path fill="#FFFFFF" stroke="#000000" stroke-width="2" stroke-miterlimit="10" d="M216.711,171.187
		c-3.578-9.343-12.625-15.979-23.227-15.979c-11.865,0-21.784,8.312-24.266,19.43c-11.408,0.62-20.469,10.065-20.469,21.629
		c0,11.964,9.699,21.664,21.663,21.664c7.479,0,14.072-3.791,17.966-9.555c4.406,7.23,12.364,12.057,21.45,12.057
		c13.865,0,25.104-11.238,25.104-25.104C234.934,183.85,227.229,174.179,216.711,171.187z"/>
	<g>
	</g>
	<g>
	</g>
	<g>
	</g>
	<g>
	</g>
	<g>
	</g>
	<g>
	</g>
</g>
</svg>
