<?xml version="1.0" encoding="utf-8"?>
<!-- Generator: Adobe Illustrator 16.0.0, SVG Export Plug-In . SVG Version: 6.00 Build 0)  -->
<!DOCTYPE svg PUBLIC "-//W3C//DTD SVG 1.1//EN" "http://www.w3.org/Graphics/SVG/1.1/DTD/svg11.dtd">
<svg version="1.1" xmlns="http://www.w3.org/2000/svg" xmlns:xlink="http://www.w3.org/1999/xlink" x="0px" y="0px" width="400px"
	 height="400px" viewBox="0 0 400 400" enable-background="new 0 0 400 400" xml:space="preserve">
<g id="Calque_1" display="none">
	<path display="inline" fill="#FFFFFF" stroke="#000000" stroke-width="2" stroke-miterlimit="10" d="M318.69,119.655
		c-12.659,0-24.594,3.07-35.132,8.477c-9.751-36.01-42.641-62.508-81.735-62.508c-41.159,0-75.447,29.366-83.088,68.286
		c-11.125-6.355-23.995-10.005-37.724-10.005c-42.08,0-76.191,34.112-76.191,76.192c0,42.079,34.112,76.192,76.191,76.192
		c12.488,0,24.263-3.024,34.665-8.35c13.891,25.239,40.732,42.347,71.577,42.347c36.819,0,67.936-24.373,78.124-57.861
		c13.849,13.268,32.622,21.435,53.314,21.435c42.583,0,77.103-34.52,77.103-77.102C395.793,154.175,361.273,119.655,318.69,119.655z
		"/>
</g>
<g id="Calque_2" display="none">
	<path display="inline" fill="#FFFFFF" stroke="#000000" stroke-width="2" stroke-miterlimit="10" d="M216.711,171.187
		c-3.578-9.343-12.625-15.979-23.227-15.979c-11.865,0-21.784,8.312-24.266,19.43c-11.408,0.62-20.469,10.065-20.469,21.629
		c0,11.964,9.699,21.664,21.663,21.664c7.479,0,14.072-3.791,17.966-9.555c4.406,7.23,12.364,12.057,21.45,12.057
		c13.865,0,25.104-11.238,25.104-25.104C234.934,183.85,227.229,174.179,216.711,171.187z"/>
</g>
<g id="Calque_3">
	<path fill="#FFFFFF" stroke="#000000" stroke-width="2" stroke-miterlimit="10" d="M335.806,208.092
		c0-21.938-17.783-39.722-39.721-39.722c-5.081,0-9.933,0.964-14.398,2.702c-5.049-19.091-21.663-33.48-41.896-35.204
		c-2.435-17.271-17.267-30.56-35.209-30.56c-17.116,0-31.403,12.091-34.797,28.196c-3.844-1.075-7.896-1.654-12.083-1.654
		c-21.842,0-40.029,15.619-44.022,36.295c-3.499-1.303-7.283-2.019-11.235-2.019c-17.78,0-32.193,14.413-32.193,32.194
		c0,11.034,5.556,20.766,14.02,26.565c-4.79,2.08-8.141,6.848-8.141,12.402c0,6.559,4.67,12.021,10.865,13.256
		c2.991,23.035,22.671,40.832,46.521,40.832c7.774,0,15.104-1.893,21.559-5.24c4.165,8,12.526,13.467,22.17,13.467
		c10.072,0,18.748-5.963,22.701-14.551c9.375,6.221,20.618,9.848,32.713,9.848c22.303,0,41.723-12.324,51.836-30.531
		c3.031,2.889,7.132,4.666,11.649,4.666c9.334,0,16.901-7.568,16.901-16.902c0-2.643-0.606-5.141-1.687-7.367
		C325.714,238.779,335.806,224.615,335.806,208.092z"/>
	<g>
	</g>
	<g>
	</g>
	<g>
	</g>
	<g>
	</g>
	<g>
	</g>
	<g>
	</g>
</g>
</svg>
